<svg xmlns="http://www.w3.org/2000/svg" xmlns:xlink="http://www.w3.org/1999/xlink" width="16" height="16" viewBox="0 0 16 16"><defs/><defs><linearGradient id="d"><stop offset="0" stop-color="#375dcf"/><stop offset="1" stop-color="#0b66dc"/></linearGradient><linearGradient id="c"><stop offset="0" stop-opacity=".2"/><stop offset="1" stop-opacity="0"/></linearGradient><linearGradient id="b"><stop offset="0" stop-opacity=".2"/><stop offset="1" stop-opacity="0"/></linearGradient><linearGradient id="a"><stop offset="0" stop-opacity=".2"/><stop offset="1" stop-opacity="0"/></linearGradient><linearGradient id="g" x1="7" x2="7" y1="5" y2="4" gradientUnits="userSpaceOnUse" xlink:href="#a"/><linearGradient id="e" x1="7" x2="7" y1="5" y2="4" gradientTransform="matrix(3 0 0 1 -32 2)" gradientUnits="userSpaceOnUse" xlink:href="#b"/><linearGradient id="f" x1="1" x2="12" y1="5" y2="12" gradientUnits="userSpaceOnUse" xlink:href="#d"/><radialGradient id="h" cx="7" cy="5" r=".5" fx="7" fy="5" gradientTransform="matrix(0 -1.95807 1.95807 0 -2.8 18.7)" gradientUnits="userSpaceOnUse" xlink:href="#c"/></defs><path fill="#b3b3b3" d="M0 0h6l3 3v8H0z" paint-order="stroke markers fill"/><path fill="#ccc" d="M9 3H6V0z"/><path fill="#999" d="M6 3h3v3z"/><path fill="#ccc" d="M7 5h6l3 3v8H7z" paint-order="stroke markers fill"/><path fill="#e6e6e6" d="M16 8h-3V5z"/><path fill="#b3b3b3" d="M13 8h3v3z"/><path fill="url(#e)" d="M-11 6h6v1h-6z" paint-order="stroke markers fill" transform="rotate(-90)"/><path fill="url(#f)" d="M1 5c1 5 3 6 7 6V9l4 3-4 3v-2c-4 0-7-2-7-8z"/><path fill="url(#g)" d="M7 4h2v1H7z" paint-order="stroke markers fill"/><path fill="url(#h)" d="M6 4h1v1H6z" paint-order="stroke markers fill"/></svg>